<svg width="20" height="20" viewBox="0 0 20 20" fill="none" xmlns="http://www.w3.org/2000/svg">
<path d="M14.3393 9.99999L15.3893 11.05C15.4673 11.1274 15.5207 11.2261 15.5425 11.3338C15.5644 11.4415 15.5539 11.5532 15.5123 11.6549C15.4706 11.7566 15.3998 11.8437 15.3087 11.9051C15.2176 11.9665 15.1103 11.9995 15.0004 12C14.9269 11.9997 14.8542 11.9848 14.7865 11.9562C14.7188 11.9276 14.6574 11.8858 14.606 11.8333L12.2227 9.44444L14.6115 7.05555C14.663 7.00375 14.7241 6.96259 14.7915 6.93442C14.8588 6.90624 14.931 6.89161 15.004 6.89135C15.077 6.89109 15.1494 6.90522 15.2169 6.93291C15.2844 6.96061 15.3459 7.00134 15.3977 7.05277C15.4495 7.10421 15.4906 7.16534 15.5188 7.23268C15.547 7.30002 15.5616 7.37226 15.5619 7.44525C15.5621 7.51825 15.548 7.59058 15.5203 7.65812C15.4926 7.72566 15.4519 7.78708 15.4004 7.83888L14.3393 8.88888H17.7782V3.88888C17.7782 3.74154 17.7197 3.60023 17.6155 3.49605C17.5113 3.39186 17.37 3.33333 17.2227 3.33333H2.77821C2.63087 3.33333 2.48956 3.39186 2.38537 3.49605C2.28119 3.60023 2.22266 3.74154 2.22266 3.88888V16.1111C2.22266 16.2584 2.28119 16.3998 2.38537 16.5039C2.48956 16.6081 2.63087 16.6667 2.77821 16.6667H17.2227C17.37 16.6667 17.5113 16.6081 17.6155 16.5039C17.7197 16.3998 17.7782 16.2584 17.7782 16.1111V9.99999H14.3393ZM11.1115 15.5555H3.33377V4.44444H11.1115V15.5555Z" fill="#49AFD9"/>
</svg>
